<svg width="52" height="52" viewBox="0 0 52 52" fill="none" xmlns="http://www.w3.org/2000/svg">
<path d="M50.2592 23.7656L47.4155 16.6562C47.1741 16.0544 46.7575 15.539 46.2196 15.1768C45.6818 14.8146 45.0475 14.6224 44.3991 14.625H37.375V13C37.375 12.569 37.2038 12.1557 36.899 11.851C36.5943 11.5462 36.181 11.375 35.75 11.375H4.875C4.01305 11.375 3.1864 11.7174 2.5769 12.3269C1.96741 12.9364 1.625 13.763 1.625 14.625V37.375C1.625 38.237 1.96741 39.0636 2.5769 39.6731C3.1864 40.2826 4.01305 40.625 4.875 40.625H8.32812C8.68611 42.0232 9.49926 43.2624 10.6394 44.1474C11.7795 45.0324 13.1817 45.5127 14.625 45.5127C16.0683 45.5127 17.4705 45.0324 18.6106 44.1474C19.7507 43.2624 20.5639 42.0232 20.9219 40.625H31.0781C31.4361 42.0232 32.2493 43.2624 33.3894 44.1474C34.5295 45.0324 35.9317 45.5127 37.375 45.5127C38.8183 45.5127 40.2205 45.0324 41.3606 44.1474C42.5007 43.2624 43.3139 42.0232 43.6719 40.625H47.125C47.987 40.625 48.8136 40.2826 49.4231 39.6731C50.0326 39.0636 50.375 38.237 50.375 37.375V24.375C50.3752 24.1664 50.336 23.9596 50.2592 23.7656ZM14.625 42.25C13.9822 42.25 13.3539 42.0594 12.8194 41.7023C12.2849 41.3452 11.8684 40.8376 11.6224 40.2437C11.3764 39.6499 11.312 38.9964 11.4374 38.366C11.5628 37.7355 11.8724 37.1564 12.3269 36.7019C12.7814 36.2474 13.3605 35.9378 13.991 35.8124C14.6214 35.687 15.2749 35.7514 15.8687 35.9974C16.4626 36.2434 16.9702 36.6599 17.3273 37.1944C17.6844 37.7289 17.875 38.3572 17.875 39C17.875 39.862 17.5326 40.6886 16.9231 41.2981C16.3136 41.9076 15.487 42.25 14.625 42.25ZM4.875 27.625V14.625H34.125V27.625H4.875ZM37.375 42.25C36.7322 42.25 36.1039 42.0594 35.5694 41.7023C35.0349 41.3452 34.6184 40.8376 34.3724 40.2437C34.1264 39.6499 34.062 38.9964 34.1874 38.366C34.3129 37.7355 34.6224 37.1564 35.0769 36.7019C35.5314 36.2474 36.1105 35.9378 36.741 35.8124C37.3714 35.687 38.0249 35.7514 38.6187 35.9974C39.2126 36.2434 39.7202 36.6599 40.0773 37.1944C40.4344 37.7289 40.625 38.3572 40.625 39C40.625 39.862 40.2826 40.6886 39.6731 41.2981C39.0636 41.9076 38.237 42.25 37.375 42.25ZM37.375 22.75V17.875H44.3991L46.3491 22.75H37.375Z" fill="#F6F7F9"/>
</svg>
