<svg width="52" height="52" viewBox="0 0 52 52" fill="none" xmlns="http://www.w3.org/2000/svg">
<path d="M45.5 24.3751V42.2501C45.5 43.112 45.1576 43.9387 44.5481 44.5482C43.9386 45.1576 43.112 45.5001 42.25 45.5001H9.75C8.88805 45.5001 8.0614 45.1576 7.4519 44.5482C6.84241 43.9387 6.5 43.112 6.5 42.2501V9.75006C6.5 8.8881 6.84241 8.06145 7.4519 7.45196C8.0614 6.84247 8.88805 6.50006 9.75 6.50006H27.625C28.056 6.50006 28.4693 6.67126 28.774 6.97601C29.0788 7.28076 29.25 7.69408 29.25 8.12506C29.25 8.55603 29.0788 8.96936 28.774 9.27411C28.4693 9.57885 28.056 9.75006 27.625 9.75006H9.75V42.2501H42.25V24.3751C42.25 23.9441 42.4212 23.5308 42.726 23.226C43.0307 22.9213 43.444 22.7501 43.875 22.7501C44.306 22.7501 44.7193 22.9213 45.024 23.226C45.3288 23.5308 45.5 23.9441 45.5 24.3751ZM46.6497 14.1497L27.1497 33.6497C26.9987 33.8006 26.8194 33.9202 26.6221 34.0018C26.4249 34.0833 26.2135 34.1252 26 34.1251H19.5C19.069 34.1251 18.6557 33.9539 18.351 33.6491C18.0462 33.3444 17.875 32.931 17.875 32.5001V26.0001C17.8748 25.7866 17.9167 25.5752 17.9983 25.3779C18.0798 25.1807 18.1995 25.0014 18.3503 24.8504L37.8503 5.35037C38.0012 5.19928 38.1805 5.07942 38.3777 4.99765C38.575 4.91587 38.7864 4.87378 39 4.87378C39.2136 4.87378 39.425 4.91587 39.6223 4.99765C39.8195 5.07942 39.9988 5.19928 40.1497 5.35037L46.6497 11.8504C46.8008 12.0013 46.9206 12.1805 47.0024 12.3778C47.0842 12.5751 47.1263 12.7865 47.1263 13.0001C47.1263 13.2136 47.0842 13.4251 47.0024 13.6223C46.9206 13.8196 46.8008 13.9988 46.6497 14.1497ZM43.1966 13.0001L39 8.7974L36.4223 11.3751L40.625 15.5777L43.1966 13.0001Z" fill="#F6F7F9"/>
</svg>
