<svg width="52" height="52" viewBox="0 0 52 52" fill="none" xmlns="http://www.w3.org/2000/svg">
<path d="M48.1853 30.8547V30.8344C48.1818 30.8192 48.1771 30.8042 48.1711 30.7898C48.0363 30.4219 47.8796 30.0624 47.7019 29.7132L39.258 10.5219C39.1767 10.3371 39.0617 10.169 38.9188 10.0263C38.3152 9.42258 37.5986 8.94366 36.8098 8.61691C36.0211 8.29016 35.1758 8.12198 34.3221 8.12198C33.4683 8.12198 32.623 8.29016 31.8343 8.61691C31.0456 8.94366 30.3289 9.42258 29.7253 10.0263C29.4217 10.3303 29.2508 10.7422 29.25 11.1719V16.2501H22.75V11.1719C22.7502 10.9585 22.7083 10.7471 22.6267 10.5498C22.5452 10.3525 22.4256 10.1733 22.2747 10.0223C21.6711 9.41851 20.9545 8.93959 20.1658 8.61284C19.3771 8.2861 18.5317 8.11792 17.678 8.11792C16.8243 8.11792 15.9789 8.2861 15.1902 8.61284C14.4015 8.93959 13.6849 9.41851 13.0813 10.0223C12.9384 10.1649 12.8234 10.333 12.7421 10.5179L4.30628 29.7132C4.12858 30.0624 3.9719 30.4219 3.83706 30.7898C3.83141 30.8036 3.82666 30.8179 3.82284 30.8324C3.82284 30.8324 3.82284 30.8487 3.82284 30.8547C2.98391 33.2787 3.134 35.9357 4.24059 38.2498C5.34717 40.5639 7.3211 42.3487 9.73458 43.2174C12.1481 44.0861 14.8067 43.9688 17.1342 42.8908C19.4617 41.8127 21.2707 39.8609 22.1691 37.4583C22.5646 36.3791 22.7641 35.2379 22.7582 34.0885V19.5001H29.2582V34.0905C29.2522 35.2399 29.4517 36.3812 29.8472 37.4604C30.7456 39.863 32.5546 41.8148 34.8821 42.8928C37.2096 43.9708 39.8682 44.0881 42.2817 43.2194C44.6952 42.3507 46.6691 40.5659 47.7757 38.2518C48.8823 35.9377 49.0324 33.2808 48.1935 30.8568L48.1853 30.8547ZM19.108 36.3391C18.5079 37.9403 17.3011 39.2405 15.7491 39.958C14.1971 40.6755 12.4248 40.7526 10.8163 40.1726C9.20784 39.5925 7.8927 38.402 7.15588 36.859C6.41905 35.316 6.31989 33.5449 6.87987 31.9293L7.24753 31.0904C7.92327 29.8059 9.00946 28.7845 10.333 28.189C11.6566 27.5935 13.1414 27.4581 14.5509 27.8044C15.9604 28.1507 17.2134 28.9587 18.1103 30.0998C19.0072 31.2409 19.4965 32.6493 19.5 34.1007V34.1251C19.4999 34.883 19.3672 35.635 19.108 36.3473V36.3391ZM41.2344 40.233C40.2519 40.5927 39.197 40.7099 38.1595 40.5746C37.122 40.4393 36.1325 40.0555 35.275 39.4559C34.4176 38.8563 33.7175 38.0585 33.2344 37.1304C32.7513 36.2024 32.4994 35.1714 32.5 34.1251V34.1027C32.5054 32.652 32.9959 31.2448 33.8935 30.1052C34.791 28.9655 36.0441 28.1588 37.4531 27.8135C38.8621 27.4683 40.3461 27.6043 41.6689 28.2C42.9916 28.7956 44.0771 29.8167 44.7525 31.1005L45.1202 31.9394C45.6981 33.5548 45.614 35.3332 44.8861 36.8869C44.1582 38.4405 42.8455 39.6433 41.2344 40.233Z" fill="#F6F7F9"/>
</svg>
