<svg width="21" height="20" viewBox="0 0 21 20" fill="none" xmlns="http://www.w3.org/2000/svg">
<path d="M10.5 1.875C8.89303 1.875 7.32214 2.35152 5.986 3.24431C4.64985 4.1371 3.60844 5.40605 2.99348 6.8907C2.37852 8.37535 2.21762 10.009 2.53112 11.5851C2.84463 13.1612 3.61846 14.6089 4.75476 15.7452C5.89106 16.8815 7.3388 17.6554 8.91489 17.9689C10.491 18.2824 12.1247 18.1215 13.6093 17.5065C15.094 16.8916 16.3629 15.8502 17.2557 14.514C18.1485 13.1779 18.625 11.607 18.625 10C18.6227 7.84581 17.766 5.78051 16.2427 4.25727C14.7195 2.73403 12.6542 1.87727 10.5 1.875ZM11.125 16.8461V11.875H13C13.1658 11.875 13.3247 11.8092 13.4419 11.6919C13.5592 11.5747 13.625 11.4158 13.625 11.25C13.625 11.0842 13.5592 10.9253 13.4419 10.8081C13.3247 10.6908 13.1658 10.625 13 10.625H11.125V8.75C11.125 8.41848 11.2567 8.10054 11.4911 7.86612C11.7255 7.6317 12.0435 7.5 12.375 7.5H13.625C13.7908 7.5 13.9497 7.43415 14.0669 7.31694C14.1842 7.19973 14.25 7.04076 14.25 6.875C14.25 6.70924 14.1842 6.55027 14.0669 6.43306C13.9497 6.31585 13.7908 6.25 13.625 6.25H12.375C11.712 6.25 11.0761 6.51339 10.6072 6.98223C10.1384 7.45107 9.875 8.08696 9.875 8.75V10.625H8C7.83424 10.625 7.67527 10.6908 7.55806 10.8081C7.44085 10.9253 7.375 11.0842 7.375 11.25C7.375 11.4158 7.44085 11.5747 7.55806 11.6919C7.67527 11.8092 7.83424 11.875 8 11.875H9.875V16.8461C8.11312 16.6853 6.48107 15.8514 5.31831 14.5179C4.15556 13.1845 3.55162 11.4541 3.63212 9.68674C3.71263 7.91936 4.47137 6.25106 5.75053 5.02883C7.02969 3.80661 8.7308 3.12456 10.5 3.12456C12.2692 3.12456 13.9703 3.80661 15.2495 5.02883C16.5286 6.25106 17.2874 7.91936 17.3679 9.68674C17.4484 11.4541 16.8444 13.1845 15.6817 14.5179C14.5189 15.8514 12.8869 16.6853 11.125 16.8461Z" fill="#0F5EBB"/>
</svg>
