<svg width="21" height="20" viewBox="0 0 21 20" fill="none" xmlns="http://www.w3.org/2000/svg">
<path d="M18.4438 17.058L14.5321 13.1471C15.6659 11.7859 16.2312 10.04 16.1106 8.27263C15.9899 6.50524 15.1925 4.85241 13.8843 3.65797C12.576 2.46353 10.8576 1.81944 9.08657 1.85969C7.31552 1.89994 5.62818 2.62143 4.37553 3.87407C3.12289 5.12671 2.4014 6.81406 2.36115 8.5851C2.3209 10.3561 2.96499 12.0745 4.15943 13.3828C5.35387 14.691 7.0067 15.4884 8.77409 15.6091C10.5415 15.7298 12.2874 15.1644 13.6485 14.0306L17.5595 17.9424C17.6175 18.0004 17.6865 18.0465 17.7623 18.0779C17.8382 18.1094 17.9195 18.1255 18.0016 18.1255C18.0838 18.1255 18.1651 18.1094 18.241 18.0779C18.3168 18.0465 18.3858 18.0004 18.4438 17.9424C18.5019 17.8843 18.548 17.8154 18.5794 17.7395C18.6108 17.6636 18.627 17.5823 18.627 17.5002C18.627 17.4181 18.6108 17.3367 18.5794 17.2609C18.548 17.185 18.5019 17.1161 18.4438 17.058ZM3.62664 8.75018C3.62664 7.63766 3.95654 6.55012 4.57463 5.6251C5.19271 4.70007 6.07121 3.9791 7.09905 3.55336C8.12688 3.12761 9.25788 3.01622 10.349 3.23326C11.4402 3.4503 12.4424 3.98603 13.2291 4.7727C14.0158 5.55937 14.5515 6.56165 14.7686 7.6528C14.9856 8.74394 14.8742 9.87494 14.4485 10.9028C14.0227 11.9306 13.3018 12.8091 12.3767 13.4272C11.4517 14.0453 10.3642 14.3752 9.25164 14.3752C7.76031 14.3735 6.33053 13.7804 5.27599 12.7258C4.22146 11.6713 3.6283 10.2415 3.62664 8.75018Z" fill="#1C2F43"/>
</svg>
