<svg width="21" height="20" viewBox="0 0 21 20" fill="none" xmlns="http://www.w3.org/2000/svg">
<path d="M10.5 6.25C9.75832 6.25 9.0333 6.46993 8.41661 6.88199C7.79993 7.29404 7.31928 7.87971 7.03545 8.56494C6.75162 9.25016 6.67736 10.0042 6.82206 10.7316C6.96675 11.459 7.3239 12.1272 7.84835 12.6517C8.3728 13.1761 9.04098 13.5333 9.76841 13.6779C10.4958 13.8226 11.2498 13.7484 11.9351 13.4645C12.6203 13.1807 13.206 12.7001 13.618 12.0834C14.0301 11.4667 14.25 10.7417 14.25 10C14.249 9.00576 13.8535 8.05253 13.1505 7.34949C12.4475 6.64645 11.4942 6.25103 10.5 6.25ZM10.5 12.5C10.0055 12.5 9.5222 12.3534 9.11107 12.0787C8.69995 11.804 8.37952 11.4135 8.1903 10.9567C8.00108 10.4999 7.95157 9.99723 8.04804 9.51227C8.1445 9.02732 8.3826 8.58186 8.73223 8.23223C9.08186 7.8826 9.52732 7.6445 10.0123 7.54804C10.4972 7.45157 10.9999 7.50108 11.4567 7.6903C11.9135 7.87952 12.304 8.19995 12.5787 8.61107C12.8534 9.0222 13 9.50555 13 10C13 10.663 12.7366 11.2989 12.2678 11.7678C11.7989 12.2366 11.163 12.5 10.5 12.5ZM14.25 1.875H6.75C5.59006 1.87624 4.47798 2.33758 3.65778 3.15778C2.83758 3.97798 2.37624 5.09006 2.375 6.25V13.75C2.37624 14.9099 2.83758 16.022 3.65778 16.8422C4.47798 17.6624 5.59006 18.1238 6.75 18.125H14.25C15.4099 18.1238 16.522 17.6624 17.3422 16.8422C18.1624 16.022 18.6238 14.9099 18.625 13.75V6.25C18.6238 5.09006 18.1624 3.97798 17.3422 3.15778C16.522 2.33758 15.4099 1.87624 14.25 1.875ZM17.375 13.75C17.375 14.5788 17.0458 15.3737 16.4597 15.9597C15.8737 16.5458 15.0788 16.875 14.25 16.875H6.75C5.9212 16.875 5.12634 16.5458 4.54029 15.9597C3.95424 15.3737 3.625 14.5788 3.625 13.75V6.25C3.625 5.4212 3.95424 4.62634 4.54029 4.04029C5.12634 3.45424 5.9212 3.125 6.75 3.125H14.25C15.0788 3.125 15.8737 3.45424 16.4597 4.04029C17.0458 4.62634 17.375 5.4212 17.375 6.25V13.75ZM15.5 5.9375C15.5 6.12292 15.445 6.30418 15.342 6.45835C15.239 6.61252 15.0926 6.73268 14.9213 6.80364C14.75 6.87459 14.5615 6.89316 14.3796 6.85699C14.1977 6.82081 14.0307 6.73152 13.8996 6.60041C13.7685 6.4693 13.6792 6.30225 13.643 6.1204C13.6068 5.93854 13.6254 5.75004 13.6964 5.57873C13.7673 5.40743 13.8875 5.26101 14.0417 5.158C14.1958 5.05498 14.3771 5 14.5625 5C14.8111 5 15.0496 5.09877 15.2254 5.27459C15.4012 5.4504 15.5 5.68886 15.5 5.9375Z" fill="#0F5EBB"/>
</svg>
