<svg width="160" height="36" viewBox="0 0 160 36" fill="none" xmlns="http://www.w3.org/2000/svg">
<path d="M128.159 17.5023V2.49683C128.159 2.36269 128.211 2.2418 128.297 2.15237L136.315 10.1892C136.195 10.3101 136.119 10.4773 136.119 10.6612V17.5023C136.119 17.7772 135.897 17.9991 135.626 17.9991H128.652C128.379 17.9991 128.159 17.7772 128.159 17.5023Z" fill="#FFD719"/>
<path d="M128.297 2.15244C128.386 2.05805 128.512 2.00008 128.652 2.00008H143.585C143.856 2.00008 144.078 2.22199 144.078 2.4969V9.50201C144.078 9.77691 143.856 9.99882 143.585 9.99882H136.777C136.596 9.99882 136.433 10.0717 136.315 10.1893L128.297 2.15244Z" fill="#0F5EBB"/>
<path d="M160 2.66242V33.3375C160 33.7035 159.706 33.9999 159.342 33.9999H128.818C128.454 33.9999 128.16 33.7035 128.16 33.3375V26.662C128.16 26.296 128.454 25.9995 128.818 25.9995H151.495C151.859 25.9995 152.153 25.7031 152.153 25.3371V2.66242C152.153 2.29643 152.447 2 152.811 2H159.342C159.706 2 160 2.29643 160 2.66242Z" fill="#1C2F43"/>
<path d="M79.6006 18.6616V33.3376C79.6006 33.7036 79.3062 34 78.9428 34H72.242C71.8786 34 71.5843 33.7036 71.5843 33.3376V26.662C71.5843 26.296 71.2899 25.9996 70.9265 25.9996H62.4909C61.9055 25.9996 61.6112 25.2858 62.0256 24.8685L66.0033 20.8625L68.6557 18.193C68.779 18.0688 68.9467 17.9992 69.121 17.9992H78.9428C79.3062 17.9992 79.6006 18.2956 79.6006 18.6616Z" fill="#1C2F43"/>
<path d="M122 34H112.68C112.506 34 112.338 33.9304 112.215 33.8046L95.7712 17.1679C95.5196 16.9128 95.5147 16.5005 95.763 16.2421L97.2593 14.6738L109.653 2.19382C109.776 2.06961 109.944 2.00006 110.118 2.00006H119.384C119.97 2.00006 120.264 2.71382 119.85 3.13115L106.861 16.214C106.604 16.4723 106.604 16.8913 106.861 17.1513L122.467 32.8689C122.882 33.2862 122.589 34 122.002 34H122Z" fill="#1C2F43"/>
<path d="M92.9198 2.00006H86.2749C85.9117 2.00006 85.6172 2.29664 85.6172 2.66248V33.3376C85.6172 33.7034 85.9117 34 86.2749 34H92.9198C93.2831 34 93.5776 33.7034 93.5776 33.3376V2.66248C93.5776 2.29664 93.2831 2.00006 92.9198 2.00006Z" fill="#1C2F43"/>
<path d="M79.6007 2.49688V9.50198C79.6007 9.77689 79.3804 9.9988 79.1074 9.9988H66.0676C65.936 9.9988 65.8111 10.0518 65.719 10.1445L62.4746 13.4119L61.22 14.6738L60.8303 15.0663L57.9181 17.9992L51.1844 24.7807L49.9742 25.9996L42.1749 33.8543C42.0829 33.947 41.9562 34 41.8263 34H32.363C31.7776 34 31.4833 33.2862 31.8976 32.8689L38.7185 25.9996L43.2668 21.4189L46.6624 17.9992L54.6063 9.9988L60.8303 3.73064L60.8862 3.67433L62.4039 2.14579C62.496 2.05305 62.6226 2.00006 62.7525 2.00006H79.1074C79.3804 2.00006 79.6007 2.22197 79.6007 2.49688Z" fill="#1C2F43"/>
<path d="M49.599 2C50.1844 2 50.4787 2.7121 50.0644 3.12943L43.4113 9.85301C43.3192 9.94575 43.1926 9.99874 43.0627 9.99874H24.7148C24.3514 9.99874 24.0571 10.2952 24.0571 10.6612V33.3375C24.0571 33.7035 23.7627 33.9999 23.3993 33.9999H16.5012C16.1378 33.9999 15.8435 33.7035 15.8435 33.3375V10.6612C15.8435 10.2952 15.5491 9.99874 15.1857 9.99874H0.657746C0.294342 9.99874 0 9.7023 0 9.33632V2.66242C0 2.29643 0.294342 2 0.657746 2H49.599Z" fill="#1C2F43"/>
</svg>
