<?xml version="1.0" encoding="utf-8"?><svg viewBox="0 0 502.66 502.66" xmlns="http://www.w3.org/2000/svg" xmlns:xlink="http://www.w3.org/1999/xlink"><style>:root>svg{display:none}:root>svg:target{display:block}</style><svg viewBox="0 0 24 24" id="arrow-next" xmlns="http://www.w3.org/2000/svg"><path d="m17.03 12.53-7.5 7.5a.751.751 0 0 1-1.06-1.06L15.44 12 8.47 5.03a.75.75 0 1 1 1.06-1.06l7.5 7.5a.75.75 0 0 1 0 1.06Z"/></svg><svg viewBox="0 0 24 24" id="arrow-prev" xmlns="http://www.w3.org/2000/svg"><path d="M15.53 18.97a.75.75 0 1 1-1.06 1.06l-7.5-7.5a.75.75 0 0 1 0-1.06l7.5-7.5a.75.75 0 1 1 1.06 1.06L8.56 12l6.97 6.97Z"/></svg><svg viewBox="0 0 502.664 502.664" xml:space="preserve" id="icon" xmlns="http://www.w3.org/2000/svg"><path d="M153.821 358.226 0 274.337v-46.463l153.821-83.414v54.574L46.636 250.523l107.185 53.431v54.272zm26.273 29.358L282.103 115.08h32.227L212.084 387.584h-31.99zm168.749-29.358v-54.272l107.164-52.999-107.164-52.59v-53.927l153.821 83.522v46.183l-153.821 84.083z"/></svg><svg viewBox="0 0 52 52" id="icon-work-1" xmlns="http://www.w3.org/2000/svg"><path d="M48.185 30.855v-.02a9.833 9.833 0 0 0-.483-1.121l-8.444-19.192a1.625 1.625 0 0 0-.34-.496 6.5 6.5 0 0 0-9.193 0 1.625 1.625 0 0 0-.475 1.146v5.078h-6.5v-5.078a1.624 1.624 0 0 0-.475-1.15 6.5 6.5 0 0 0-9.194 0 1.62 1.62 0 0 0-.339.496L4.306 29.713a9.84 9.84 0 0 0-.483 1.12v.022a9.75 9.75 0 0 0 18.346 6.603 9.65 9.65 0 0 0 .59-3.37V19.5h6.5v14.59a9.647 9.647 0 0 0 .588 3.37 9.75 9.75 0 0 0 18.346-6.603l-.008-.002Zm-29.077 5.484A6.5 6.5 0 0 1 6.88 31.93l.368-.839A6.5 6.5 0 0 1 19.5 34.1v.025a6.5 6.5 0 0 1-.392 2.222v-.008Zm22.126 3.894a6.5 6.5 0 0 1-8.734-6.108v-.022A6.5 6.5 0 0 1 44.752 31.1l.368.84a6.5 6.5 0 0 1-3.886 8.293Z"/></svg><svg viewBox="0 0 52 52" id="icon-work-2" xmlns="http://www.w3.org/2000/svg"><path d="M45.435 13.437 27.56 3.657a3.225 3.225 0 0 0-3.12 0L6.565 13.44a3.25 3.25 0 0 0-1.69 2.844V35.71a3.25 3.25 0 0 0 1.69 2.844L24.44 48.34a3.225 3.225 0 0 0 3.12 0l17.875-9.785a3.25 3.25 0 0 0 1.69-2.844V16.287a3.249 3.249 0 0 0-1.69-2.85ZM26 6.5l16.321 8.938-6.049 3.308L19.951 9.81 26 6.5Zm0 17.875L9.679 15.437l6.888-3.772 16.321 8.938L26 24.375Zm17.875 11.344-16.25 8.895v-17.43l6.5-3.556v7.247a1.625 1.625 0 1 0 3.25 0v-9.027l6.5-3.557V35.72Z"/></svg><svg viewBox="0 0 52 52" id="icon-work-3" xmlns="http://www.w3.org/2000/svg"><path d="M45.5 24.375V42.25a3.25 3.25 0 0 1-3.25 3.25H9.75a3.25 3.25 0 0 1-3.25-3.25V9.75A3.25 3.25 0 0 1 9.75 6.5h17.875a1.625 1.625 0 1 1 0 3.25H9.75v32.5h32.5V24.375a1.625 1.625 0 1 1 3.25 0Zm1.15-10.225-19.5 19.5a1.625 1.625 0 0 1-1.15.475h-6.5a1.625 1.625 0 0 1-1.625-1.625V26a1.624 1.624 0 0 1 .475-1.15l19.5-19.5a1.625 1.625 0 0 1 2.3 0l6.5 6.5a1.625 1.625 0 0 1 0 2.3ZM43.197 13 39 8.797l-2.578 2.578 4.203 4.203L43.197 13Z"/></svg><svg viewBox="0 0 52 52" id="icon-work-4" xmlns="http://www.w3.org/2000/svg"><path d="m50.26 23.766-2.844-7.11a3.236 3.236 0 0 0-3.017-2.031h-7.024V13a1.625 1.625 0 0 0-1.625-1.625H4.875a3.25 3.25 0 0 0-3.25 3.25v22.75a3.25 3.25 0 0 0 3.25 3.25h3.453a6.5 6.5 0 0 0 12.594 0h10.156a6.5 6.5 0 0 0 12.594 0h3.453a3.25 3.25 0 0 0 3.25-3.25v-13c0-.209-.039-.415-.116-.61ZM14.624 42.25a3.25 3.25 0 1 1 0-6.5 3.25 3.25 0 0 1 0 6.5Zm-9.75-14.625v-13h29.25v13H4.875Zm32.5 14.625a3.25 3.25 0 1 1 0-6.5 3.25 3.25 0 0 1 0 6.5Zm0-19.5v-4.875h7.024l1.95 4.875h-8.974Z"/></svg></svg>