<svg width="21" height="20" viewBox="0 0 21 20" fill="none" xmlns="http://www.w3.org/2000/svg">
<path d="M18 5.625C17.0058 5.62397 16.0525 5.22855 15.3495 4.52551C14.6465 3.82247 14.251 2.86924 14.25 1.875C14.25 1.70924 14.1842 1.55027 14.0669 1.43306C13.9497 1.31585 13.7908 1.25 13.625 1.25H10.5C10.3342 1.25 10.1753 1.31585 10.0581 1.43306C9.94085 1.55027 9.875 1.70924 9.875 1.875V12.1875C9.87487 12.4671 9.79972 12.7415 9.65739 12.9822C9.51506 13.2229 9.31076 13.4209 9.0658 13.5557C8.82084 13.6905 8.5442 13.7571 8.26474 13.7486C7.98527 13.74 7.71322 13.6566 7.47695 13.5071C7.24069 13.3576 7.04888 13.1474 6.92152 12.8985C6.79416 12.6496 6.73592 12.3711 6.75288 12.092C6.76983 11.8129 6.86137 11.5435 7.01793 11.3119C7.17449 11.0802 7.39034 10.8948 7.64297 10.775C7.74983 10.7243 7.84011 10.6443 7.90331 10.5443C7.96651 10.4443 8.00004 10.3284 8 10.2102V6.875C8.00004 6.78364 7.98005 6.69338 7.94144 6.61058C7.90283 6.52778 7.84653 6.45446 7.77652 6.39576C7.7065 6.33707 7.62447 6.29444 7.53621 6.27088C7.44794 6.24731 7.35558 6.24339 7.26562 6.25938C4.47734 6.75625 2.375 9.30469 2.375 12.1875C2.375 13.7622 3.00056 15.2724 4.11405 16.3859C5.22755 17.4994 6.73778 18.125 8.3125 18.125C9.88722 18.125 11.3974 17.4994 12.5109 16.3859C13.6244 15.2724 14.25 13.7622 14.25 12.1875V9.08516C15.4075 9.6891 16.6944 10.003 18 10C18.1658 10 18.3247 9.93415 18.4419 9.81694C18.5592 9.69973 18.625 9.54076 18.625 9.375V6.25C18.625 6.08424 18.5592 5.92527 18.4419 5.80806C18.3247 5.69085 18.1658 5.625 18 5.625ZM17.375 8.72187C16.1536 8.61365 14.9841 8.17774 13.9898 7.46016C13.8964 7.39297 13.7862 7.35289 13.6714 7.34434C13.5566 7.33579 13.4417 7.3591 13.3394 7.4117C13.237 7.4643 13.1511 7.54415 13.0912 7.64244C13.0314 7.74074 12.9998 7.85365 13 7.96875V12.1875C13 13.4307 12.5061 14.623 11.6271 15.5021C10.748 16.3811 9.5557 16.875 8.3125 16.875C7.0693 16.875 5.87701 16.3811 4.99794 15.5021C4.11886 14.623 3.625 13.4307 3.625 12.1875C3.625 10.1641 4.925 8.34922 6.75 7.6875V9.84922C6.34598 10.1192 6.01878 10.4892 5.80031 10.9232C5.58184 11.3572 5.47954 11.8405 5.50339 12.3258C5.52724 12.8111 5.67641 13.282 5.93638 13.6925C6.19635 14.103 6.55825 14.4392 6.98679 14.6682C7.41533 14.8972 7.8959 15.0114 8.38166 14.9994C8.86742 14.9875 9.3418 14.8499 9.75857 14.6C10.1753 14.3502 10.5203 13.9966 10.7597 13.5738C10.9992 13.151 11.125 12.6734 11.125 12.1875V2.5H13.0391C13.1796 3.60085 13.6816 4.62389 14.4664 5.40862C15.2511 6.19335 16.2742 6.69538 17.375 6.83594V8.72187Z" fill="#0F5EBB"/>
</svg>
