<svg width="21" height="20" viewBox="0 0 21 20" fill="none" xmlns="http://www.w3.org/2000/svg">
<path d="M13.3469 9.47969L9.59688 6.97969C9.50273 6.91688 9.39329 6.88081 9.28024 6.87533C9.1672 6.86985 9.05479 6.89517 8.95501 6.94859C8.85523 7.00201 8.77183 7.08152 8.71371 7.17864C8.65559 7.27575 8.62493 7.38682 8.625 7.5V12.5C8.62493 12.6132 8.65559 12.7243 8.71371 12.8214C8.77183 12.9185 8.85523 12.998 8.95501 13.0514C9.05479 13.1048 9.1672 13.1302 9.28024 13.1247C9.39329 13.1192 9.50273 13.0831 9.59688 13.0203L13.3469 10.5203C13.4326 10.4633 13.5029 10.3859 13.5515 10.2951C13.6002 10.2044 13.6256 10.103 13.6256 10C13.6256 9.89702 13.6002 9.79564 13.5515 9.70487C13.5029 9.61409 13.4326 9.53674 13.3469 9.47969ZM9.875 11.332V8.67188L11.8734 10L9.875 11.332ZM18.807 5.43125C18.7334 5.14324 18.5924 4.87686 18.3956 4.65409C18.1987 4.43132 17.9517 4.25854 17.675 4.15C14.9969 3.11563 10.7344 3.125 10.5 3.125C10.2656 3.125 6.00312 3.11563 3.325 4.15C3.04825 4.25854 2.80128 4.43132 2.60445 4.65409C2.40762 4.87686 2.26658 5.14324 2.19297 5.43125C1.99063 6.21094 1.75 7.63594 1.75 10C1.75 12.3641 1.99063 13.7891 2.19297 14.5688C2.26647 14.8569 2.40746 15.1234 2.6043 15.3464C2.80113 15.5693 3.04816 15.7422 3.325 15.8508C5.89062 16.8406 9.90625 16.875 10.4484 16.875H10.5516C11.0938 16.875 15.1117 16.8406 17.675 15.8508C17.9518 15.7422 18.1989 15.5693 18.3957 15.3464C18.5925 15.1234 18.7335 14.8569 18.807 14.5688C19.0094 13.7875 19.25 12.3641 19.25 10C19.25 7.63594 19.0094 6.21094 18.807 5.43125ZM17.5969 14.2594C17.5731 14.3552 17.5269 14.4441 17.4621 14.5186C17.3973 14.5932 17.3158 14.6513 17.2242 14.6883C14.7516 15.643 10.5461 15.6258 10.5055 15.6258H10.5C10.4578 15.6258 6.25547 15.6414 3.78125 14.6883C3.68966 14.6513 3.60814 14.5932 3.54337 14.5186C3.47859 14.4441 3.4324 14.3552 3.40859 14.2594C3.21875 13.5461 3 12.232 3 10C3 7.76797 3.21875 6.45391 3.40312 5.74453C3.42649 5.64811 3.47248 5.55864 3.53728 5.48351C3.60208 5.40839 3.68383 5.34977 3.77578 5.3125C6.16016 4.39141 10.1555 4.375 10.4828 4.375H10.5039C10.5461 4.375 14.7523 4.36094 17.2227 5.3125C17.3142 5.34947 17.3958 5.40761 17.4605 5.48216C17.5253 5.55671 17.5715 5.64556 17.5953 5.74141C17.7813 6.45391 18 7.76797 18 10C18 12.232 17.7812 13.5461 17.5969 14.2555V14.2594Z" fill="#0F5EBB"/>
</svg>
